<svg xmlns="http://www.w3.org/2000/svg" xmlns:xlink="http://www.w3.org/1999/xlink" width="50" zoomAndPan="magnify" viewBox="0 0 37.5 37.499999" height="50" preserveAspectRatio="xMidYMid meet" version="1.0"><defs><clipPath id="e93779f64c"><path d="M 1.371094 1.371094 L 35.414062 1.371094 L 35.414062 35 L 1.371094 35 Z M 1.371094 1.371094 " clip-rule="nonzero"/></clipPath></defs><g clip-path="url(#e93779f64c)"><path fill="#ffffff" d="M 9.167969 34.160156 L 9.167969 12.105469 L 1.835938 12.105469 L 1.835938 34.160156 Z M 5.5 9.09375 C 8.058594 9.09375 9.648438 7.398438 9.648438 5.28125 C 9.601562 3.121094 8.058594 1.472656 5.550781 1.472656 C 3.042969 1.472656 1.402344 3.121094 1.402344 5.28125 C 1.402344 7.398438 2.992188 9.09375 5.453125 9.09375 Z M 13.222656 34.160156 C 13.222656 34.160156 13.320312 14.175781 13.222656 12.105469 L 20.554688 12.105469 L 20.554688 15.304688 L 20.507812 15.304688 C 21.46875 13.796875 23.207031 11.585938 27.160156 11.585938 C 31.984375 11.585938 35.601562 14.738281 35.601562 21.515625 L 35.601562 34.160156 L 28.269531 34.160156 L 28.269531 22.363281 C 28.269531 19.398438 27.210938 17.375 24.558594 17.375 C 22.53125 17.375 21.324219 18.738281 20.796875 20.054688 C 20.601562 20.527344 20.554688 21.183594 20.554688 21.84375 L 20.554688 34.160156 Z M 13.222656 34.160156 " fill-opacity="1" fill-rule="evenodd"/></g></svg>